<svg version="1.1" xmlns="http://www.w3.org/2000/svg" xmlns:xlink="http://www.w3.org/1999/xlink" width="25" height="17"><defs/><g><path fill="rgb(255,255,255)" stroke="none" paint-order="stroke fill markers" fill-rule="evenodd" d=" M 1.999847412109375 7.998539686203003 C 1.999847412109375 7.998539686203003 22.999784469604492 7.998539686203003 22.999784469604492 7.998539686203003 C 22.999784469604492 7.998539686203003 22.999784469604492 8.998287677764893 22.999784469604492 8.998287677764893 C 22.999784469604492 8.998287677764893 1.999847412109375 8.998287677764893 1.999847412109375 8.998287677764893 C 1.999847412109375 8.998287677764893 1.999847412109375 7.998539686203003 1.999847412109375 7.998539686203003 Z M 1.999847412109375 8.998287677764893 C 1.999847412109375 8.998287677764893 22.999784469604492 8.998287677764893 22.999784469604492 8.998287677764893 C 22.999784469604492 8.998287677764893 22.999784469604492 9.998525261878967 22.999784469604492 9.998525261878967 C 22.999784469604492 9.998525261878967 1.999847412109375 9.998525261878967 1.999847412109375 9.998525261878967 C 1.999847412109375 9.998525261878967 1.999847412109375 8.998287677764893 1.999847412109375 8.998287677764893 Z M 15.949136734008789 1.9129042625427246 C 15.949136734008789 1.9129042625427246 23.387224197387695 8.59633219242096 23.387224197387695 8.59633219242096 C 23.387224197387695 8.59633219242096 22.718860626220703 9.340023279190063 22.718860626220703 9.340023279190063 C 22.718860626220703 9.340023279190063 15.280773162841797 2.6565953493118286 15.280773162841797 2.6565953493118286 C 15.280773162841797 2.6565953493118286 15.949136734008789 1.9129042625427246 15.949136734008789 1.9129042625427246 Z M 15.280773162841797 2.6565953493118286 C 15.280773162841797 2.6565953493118286 22.718860626220703 9.340023279190063 22.718860626220703 9.340023279190063 C 22.718860626220703 9.340023279190063 22.05049705505371 10.084203958511353 22.05049705505371 10.084203958511353 C 22.05049705505371 10.084203958511353 14.612323760986328 3.3997968435287476 14.612323760986328 3.3997968435287476 C 14.612323760986328 3.3997968435287476 15.280773162841797 2.6565953493118286 15.280773162841797 2.6565953493118286 Z M 21.628725051879883 7.998539686203003 C 21.628725051879883 7.998539686203003 13.999835968017578 14.541944146156311 13.999835968017578 14.541944146156311 C 13.999835968017578 14.541944146156311 14.685365676879883 15.269968271255493 14.685365676879883 15.269968271255493 C 14.685365676879883 15.269968271255493 22.314254760742188 8.72607421875 22.314254760742188 8.72607421875 C 22.314254760742188 8.72607421875 21.628725051879883 7.998539686203003 21.628725051879883 7.998539686203003 Z M 22.314254760742188 8.72607421875 C 22.314254760742188 8.72607421875 14.685365676879883 15.269968271255493 14.685365676879883 15.269968271255493 C 14.685365676879883 15.269968271255493 15.370895385742188 15.99848198890686 15.370895385742188 15.99848198890686 C 15.370895385742188 15.99848198890686 22.999784469604492 9.454587936401367 22.999784469604492 9.454587936401367 C 22.999784469604492 9.454587936401367 22.314254760742188 8.72607421875 22.314254760742188 8.72607421875 Z M 1.999847412109375 7.998539686203003 C 1.999847412109375 7.998539686203003 22.999784469604492 7.998539686203003 22.999784469604492 7.998539686203003 C 22.999784469604492 7.998539686203003 22.999784469604492 8.998287677764893 22.999784469604492 8.998287677764893 C 22.999784469604492 8.998287677764893 1.999847412109375 8.998287677764893 1.999847412109375 8.998287677764893 C 1.999847412109375 8.998287677764893 1.999847412109375 7.998539686203003 1.999847412109375 7.998539686203003 Z M 1.999847412109375 8.998287677764893 C 1.999847412109375 8.998287677764893 22.999784469604492 8.998287677764893 22.999784469604492 8.998287677764893 C 22.999784469604492 8.998287677764893 22.999784469604492 9.998525261878967 22.999784469604492 9.998525261878967 C 22.999784469604492 9.998525261878967 1.999847412109375 9.998525261878967 1.999847412109375 9.998525261878967 C 1.999847412109375 9.998525261878967 1.999847412109375 8.998287677764893 1.999847412109375 8.998287677764893 Z M 15.949136734008789 1.9129042625427246 C 15.949136734008789 1.9129042625427246 23.387224197387695 8.59633219242096 23.387224197387695 8.59633219242096 C 23.387224197387695 8.59633219242096 22.718860626220703 9.340023279190063 22.718860626220703 9.340023279190063 C 22.718860626220703 9.340023279190063 15.280773162841797 2.6565953493118286 15.280773162841797 2.6565953493118286 C 15.280773162841797 2.6565953493118286 15.949136734008789 1.9129042625427246 15.949136734008789 1.9129042625427246 Z M 15.280773162841797 2.6565953493118286 C 15.280773162841797 2.6565953493118286 22.718860626220703 9.340023279190063 22.718860626220703 9.340023279190063 C 22.718860626220703 9.340023279190063 22.05049705505371 10.084203958511353 22.05049705505371 10.084203958511353 C 22.05049705505371 10.084203958511353 14.612323760986328 3.3997968435287476 14.612323760986328 3.3997968435287476 C 14.612323760986328 3.3997968435287476 15.280773162841797 2.6565953493118286 15.280773162841797 2.6565953493118286 Z M 21.628725051879883 7.998539686203003 C 21.628725051879883 7.998539686203003 13.999835968017578 14.541944146156311 13.999835968017578 14.541944146156311 C 13.999835968017578 14.541944146156311 14.685365676879883 15.269968271255493 14.685365676879883 15.269968271255493 C 14.685365676879883 15.269968271255493 22.314254760742188 8.72607421875 22.314254760742188 8.72607421875 C 22.314254760742188 8.72607421875 21.628725051879883 7.998539686203003 21.628725051879883 7.998539686203003 Z M 22.314254760742188 8.72607421875 C 22.314254760742188 8.72607421875 14.685365676879883 15.269968271255493 14.685365676879883 15.269968271255493 C 14.685365676879883 15.269968271255493 15.370895385742188 15.99848198890686 15.370895385742188 15.99848198890686 C 15.370895385742188 15.99848198890686 22.999784469604492 9.454587936401367 22.999784469604492 9.454587936401367 C 22.999784469604492 9.454587936401367 22.314254760742188 8.72607421875 22.314254760742188 8.72607421875 Z"/></g></svg>